<?xml version="1.0" encoding="utf-8"?>
<!-- Generator: Adobe Illustrator 16.0.0, SVG Export Plug-In . SVG Version: 6.00 Build 0)  -->
<!DOCTYPE svg PUBLIC "-//W3C//DTD SVG 1.1//EN" "http://www.w3.org/Graphics/SVG/1.1/DTD/svg11.dtd">
<svg version="1.1" id="Layer_1" xmlns="http://www.w3.org/2000/svg" xmlns:xlink="http://www.w3.org/1999/xlink" x="0px" y="0px"
	 width="1727.34px" height="1533.208px" viewBox="0 0 1727.34 1533.208" enable-background="new 0 0 1727.34 1533.208"
	 xml:space="preserve">
<g>
	<defs>
		<rect id="SVGID_1_" y="-967.273" width="1727.338" height="2500.481"/>
	</defs>
	<clipPath id="SVGID_2_">
		<use xlink:href="#SVGID_1_"  overflow="visible"/>
	</clipPath>
	<path clip-path="url(#SVGID_2_)" fill="none" stroke="#231F20" stroke-miterlimit="10" d="M1400.295,912.415
		c0.245,0.619,0.492,1.238,0.74,1.857"/>
	<path clip-path="url(#SVGID_2_)" fill="none" stroke="#231F20" stroke-miterlimit="10" stroke-dasharray="4.01,4.01" d="
		M1402.557,917.982c4.227,10.161,8.898,20.302,12.779,30.623c4.009,10.663,8.262,25.736,15.285,34.828
		c11.032,14.281,32.334,19.228,48.735,25.703c11.55,4.562,24.312,11.334,36.544,14.101"/>
	<path clip-path="url(#SVGID_2_)" fill="none" stroke="#231F20" stroke-miterlimit="10" d="M1517.861,1023.647
		c0.658,0.126,1.315,0.238,1.971,0.338"/>
	<path clip-path="url(#SVGID_2_)" fill-rule="evenodd" clip-rule="evenodd" fill="#819499" d="M1488.83,912.415
		c-2.037-0.768-0.495-1.988-0.281-4.156c-0.62-4.521-7.314-4.782-12.318-5.459c-1.866-4.691-9.307-5.076-15.324-5.319
		c-0.117,2.598-0.947,5.261-1.441,7.163c-1.809,0.262-2.503-0.68-4.657-0.938c-2.266-4.035-3.958-8.491-5.573-13.046
		c-1.485-4.194-3.849-8.899-4.713-13.618c-0.833-4.56-0.198-9.869-0.412-14.617c-0.203-4.573,0.484-10.523-0.843-14.329
		c-1.124-3.224-6.29-6.531-8.659-8.822c-3.204-3.102-5.625-5.894-8.73-8.465c-8.622-1.878-19.135,1.466-28.012-1.537
		c-3.82-1.293-9.34-5.743-13.244-8.255c-4.402-2.833-8.447-6.07-12.887-8.184c0.045-2.512,0.279-5.149,0.008-7.451
		c2.062-1.529,3.525-4.097,5.454-6.729c1.49-2.036,3.981-4.294,5.094-6.8c0.447-1.008,0.124-2.258,0.648-3.224
		c0.654-1.203,3.255-3.795,4.162-5.869c1.406-3.214,1.721-7.378,3.667-10.815c0.929-1.639,4.059-5.924,4.381-8.807
		c0.303-2.707-1.045-5.4-0.277-7.882c0.488-1.577,2.065-2.222,2.656-3.938c2.164-0.788,4.448-1.396,7.309-1.137
		c1.491-1.701,2.878-4.448,2.157-7.02c2.241-4.908,7.387-4.492,12.686-3.783c6.145,3.672,5.499,11.855,10.943,15.99
		c2.334,0.088,1.461-4.646,3.303-5.298c2.209,1.954,1.017,5.272,1.71,8.17c0.71,2.964,2.937,5.829,2.926,9.532
		c-0.008,2.82-1.292,5.325-0.511,8.095c0.73,2.591,4.096,5.129,5.363,8.533c1.401,3.765,1.235,7.453,4.287,10.179
		c10.135,7.634,10.689,21.639,17.516,31.474c7.941,6.714,19.86,10.784,20.896,22.091c3.98,1.265,8.824,5.254,9.23,9.683
		c0.133,1.45-0.865,2.623-0.865,4.298c0.001,6.985,5.5,12.365,8.721,17.778c2.433,4.089,3.781,8.242,2.134,13.473
		c3.838,4.027,0.569,11.58,5.069,15.554c-4.018,1.44-8.688-1.809-9.954-4.239c-3.75-1.285-6.156-0.549-8.312,0.562
		C1489.763,907.835,1491.837,910.607,1488.83,912.415"/>
</g>
<text transform="matrix(1 0 0 1 1219.7979 218.373)"><tspan x="0" y="0" fill="#2E3192" font-family="'MyriadPro-Bold'" font-size="33.5381">A</tspan><tspan x="21.833" y="0" fill="#2E3192" font-family="'MyriadPro-Bold'" font-size="33.5381">ba</tspan><tspan x="59.597" y="0" fill="#2E3192" font-family="'MyriadPro-Bold'" font-size="33.5381">r</tspan><tspan x="72.105" y="0" fill="#2E3192" font-family="'MyriadPro-Bold'" font-size="33.5381">e</tspan><tspan x="89.076" y="0" fill="#2E3192" font-family="'MyriadPro-Bold'" font-size="33.5381" letter-spacing="-3">’</tspan><tspan x="94.71" y="0" fill="#2E3192" font-family="'MyriadPro-Bold'" font-size="33.5381">s </tspan><tspan x="116.04" y="0" fill="#2E3192" font-family="'MyriadPro-Bold'" font-size="33.5381">F</tspan><tspan x="132.843" y="0" fill="#2E3192" font-family="'MyriadPro-Bold'" font-size="33.5381">olly</tspan></text>
<text transform="matrix(1 0 0 1 1240.9941 250.3013)"><tspan x="0" y="0" fill="#2E3192" font-family="'MyriadPro-Bold'" font-size="33.5381">M</tspan><tspan x="28.44" y="0" fill="#2E3192" font-family="'MyriadPro-Bold'" font-size="33.5381">ou</tspan><tspan x="67.344" y="0" fill="#2E3192" font-family="'MyriadPro-Bold'" font-size="33.5381">n</tspan><tspan x="86.829" y="0" fill="#2E3192" font-family="'MyriadPro-Bold'" font-size="33.5381">tain</tspan></text>
<text transform="matrix(1 0 0 1 338.8862 840.2031)"><tspan x="0" y="0" fill="#2E3192" font-family="'MyriadPro-Bold'" font-size="33.5381">Dorne Pla</tspan><tspan x="145.99" y="0" fill="#2E3192" font-family="'MyriadPro-Bold'" font-size="33.5381">c</tspan><tspan x="160.78" y="0" fill="#2E3192" font-family="'MyriadPro-Bold'" font-size="33.5381">e</tspan></text>
<text transform="matrix(0.932 0.3625 -0.3625 0.932 558.2539 1171.625)"><tspan x="0" y="0" fill="#2E3192" font-family="'MyriadPro-Bold'" font-size="33.5382" letter-spacing="-1">T</tspan><tspan x="16.601" y="0" fill="#2E3192" font-family="'MyriadPro-Bold'" font-size="33.5382">urner</tspan></text>
<text transform="matrix(0.932 0.3625 -0.3625 0.932 546.6807 1201.3818)"><tspan x="0" y="0" fill="#2E3192" font-family="'MyriadPro-Bold'" font-size="33.5382">Jo</tspan><tspan x="33.134" y="0" fill="#2E3192" font-family="'MyriadPro-Bold'" font-size="33.5382">r</tspan><tspan x="45.644" y="0" fill="#2E3192" font-family="'MyriadPro-Bold'" font-size="33.5382">dan</tspan></text>
<text transform="matrix(0.932 0.3625 -0.3625 0.932 535.1064 1231.1387)"><tspan x="0" y="0" fill="#2E3192" font-family="'MyriadPro-Bold'" font-size="33.5382">Pla</tspan><tspan x="46.417" y="0" fill="#2E3192" font-family="'MyriadPro-Bold'" font-size="33.5382">c</tspan><tspan x="61.207" y="0" fill="#2E3192" font-family="'MyriadPro-Bold'" font-size="33.5382">e</tspan></text>
<text transform="matrix(1 0 0 1 586.5029 577.5918)"><tspan x="0" y="0" fill="#2E3192" font-family="'MyriadPro-Bold'" font-size="33.5381">Si</tspan><tspan x="27.299" y="0" fill="#2E3192" font-family="'MyriadPro-Bold'" font-size="33.5381">t</tspan><tspan x="39.473" y="0" fill="#2E3192" font-family="'MyriadPro-Bold'" font-size="33.5381">e of</tspan></text>
<text transform="matrix(1 0 0 1 586.5029 609.5205)"><tspan x="0" y="0" fill="#2E3192" font-family="'MyriadPro-Bold'" font-size="33.5381">P</tspan><tspan x="19.485" y="0" fill="#2E3192" font-family="'MyriadPro-Bold'" font-size="33.5381" letter-spacing="-1">L</tspan><tspan x="35.382" y="0" fill="#2E3192" font-family="'MyriadPro-Bold'" font-size="33.5381">C</tspan></text>
<text transform="matrix(1 0 0 1 586.5029 641.4482)"><tspan x="0" y="0" fill="#2E3192" font-family="'MyriadPro-Bold'" font-size="33.5381">P</tspan><tspan x="19.217" y="0" fill="#2E3192" font-family="'MyriadPro-Bold'" font-size="33.5381">r</tspan><tspan x="31.727" y="0" fill="#2E3192" font-family="'MyriadPro-Bold'" font-size="33.5381">oje</tspan><tspan x="78.545" y="0" fill="#2E3192" font-family="'MyriadPro-Bold'" font-size="33.5381">c</tspan><tspan x="94.207" y="0" fill="#2E3192" font-family="'MyriadPro-Bold'" font-size="33.5381">t</tspan></text>
<text transform="matrix(1 0 0 1 186.125 936.4492)"><tspan x="0" y="0" fill="#2E3192" font-family="'MyriadPro-Bold'" font-size="33.5381">H</tspan><tspan x="23.208" y="0" fill="#2E3192" font-family="'MyriadPro-Bold'" font-size="33.5381">illa</tspan><tspan x="68.551" y="0" fill="#2E3192" font-family="'MyriadPro-Bold'" font-size="33.5381">r</tspan><tspan x="81.865" y="0" fill="#2E3192" font-family="'MyriadPro-Bold'" font-size="33.5381">y </tspan><tspan x="106.18" y="0" fill="#2E3192" font-family="'MyriadPro-Bold'" font-size="33.5381" letter-spacing="-1">F</tspan><tspan x="122.546" y="0" fill="#2E3192" font-family="'MyriadPro-Bold'" font-size="33.5381">arm</tspan></text>
<text transform="matrix(0.8312 -0.5559 0.5559 0.8312 313.8369 1188.3682)"><tspan x="0" y="0" fill="#2E3192" font-family="'MyriadPro-Bold'" font-size="33.5382">S</tspan><tspan x="18.379" y="0" fill="#2E3192" font-family="'MyriadPro-Bold'" font-size="33.5382">andbank</tspan></text>
<text transform="matrix(1 0 0 1 886.3408 1350.7402)"><tspan x="0" y="0" fill="#2E3192" font-family="'MyriadPro-Bold'" font-size="33.5381" letter-spacing="-1">T</tspan><tspan x="16.601" y="0" fill="#2E3192" font-family="'MyriadPro-Bold'" font-size="33.5381">r</tspan><tspan x="29.278" y="0" fill="#2E3192" font-family="'MyriadPro-Bold'" font-size="33.5381">ust </tspan><tspan x="82.469" y="0" fill="#2E3192" font-family="'MyriadPro-Bold'" font-size="33.5381">L</tspan><tspan x="99.74" y="0" fill="#2E3192" font-family="'MyriadPro-Bold'" font-size="33.5381">ands</tspan></text>
<text transform="matrix(1 0 0 1 1027.335 1388.8057)"><tspan x="0" y="0" fill="#2E3192" font-family="'MyriadPro-Bold'" font-size="33.5381">L</tspan><tspan x="16.869" y="0" fill="#2E3192" font-family="'MyriadPro-Bold'" font-size="33.5381">edges</tspan></text>
<text transform="matrix(1 0 0 1 1027.335 1420.7344)"><tspan x="0" y="0" fill="#2E3192" font-family="'MyriadPro-Bold'" font-size="33.5381">whe</tspan><tspan x="62.816" y="0" fill="#2E3192" font-family="'MyriadPro-Bold'" font-size="33.5381">r</tspan><tspan x="75.326" y="0" fill="#2E3192" font-family="'MyriadPro-Bold'" font-size="33.5381">e Bi</tspan><tspan x="129.254" y="0" fill="#2E3192" font-family="'MyriadPro-Bold'" font-size="33.5381">r</tspan><tspan x="141.764" y="0" fill="#2E3192" font-family="'MyriadPro-Bold'" font-size="33.5381">ch</tspan></text>
<text transform="matrix(1 0 0 1 1027.335 1452.6621)"><tspan x="0" y="0" fill="#2E3192" font-family="'MyriadPro-Bold'" font-size="33.5381">w</tspan><tspan x="25.254" y="0" fill="#2E3192" font-family="'MyriadPro-Bold'" font-size="33.5381">as </tspan><tspan x="64.292" y="0" fill="#2E3192" font-family="'MyriadPro-Bold'" font-size="33.5381">b</tspan><tspan x="84.447" y="0" fill="#2E3192" font-family="'MyriadPro-Bold'" font-size="33.5381">orn</tspan></text>
<text transform="matrix(1 0 0 1 385.3149 1335.749)"><tspan x="0" y="0" fill="#2E3192" font-family="'MyriadPro-Bold'" font-size="33.5381" letter-spacing="-1">T</tspan><tspan x="16.601" y="0" fill="#2E3192" font-family="'MyriadPro-Bold'" font-size="33.5381">r</tspan><tspan x="29.278" y="0" fill="#2E3192" font-family="'MyriadPro-Bold'" font-size="33.5381">ust </tspan><tspan x="82.468" y="0" fill="#2E3192" font-family="'MyriadPro-Bold'" font-size="33.5381">L</tspan><tspan x="99.74" y="0" fill="#2E3192" font-family="'MyriadPro-Bold'" font-size="33.5381">ands</tspan></text>
<text transform="matrix(1 0 0 1 1384.583 674.4775)"><tspan x="0" y="0" fill="#2E3192" font-family="'MyriadPro-Bold'" font-size="33.5381" letter-spacing="-1">T</tspan><tspan x="16.601" y="0" fill="#2E3192" font-family="'MyriadPro-Bold'" font-size="33.5381">r</tspan><tspan x="29.278" y="0" fill="#2E3192" font-family="'MyriadPro-Bold'" font-size="33.5381">ust </tspan><tspan x="82.469" y="0" fill="#2E3192" font-family="'MyriadPro-Bold'" font-size="33.5381">L</tspan><tspan x="99.74" y="0" fill="#2E3192" font-family="'MyriadPro-Bold'" font-size="33.5381">ands</tspan></text>
<text transform="matrix(0.7541 -0.9951 0.797 0.604 571.3662 868.2373)"><tspan x="0" y="0" fill="#808184" font-family="'MinionPro-Bold'" font-size="31.3979">C</tspan><tspan x="21.821" y="0" fill="#808184" font-family="'MinionPro-Bold'" font-size="31.3979">o</tspan><tspan x="38.022" y="0" fill="#808184" font-family="'MinionPro-Bold'" font-size="31.3979">nn</tspan><tspan x="73.565" y="0.001" fill="#808184" font-family="'MinionPro-Bold'" font-size="31.3979">e</tspan><tspan x="87.693" y="0" fill="#808184" font-family="'MinionPro-Bold'" font-size="31.3979">c</tspan><tspan x="101.1" y="0.001" fill="#808184" font-family="'MinionPro-Bold'" font-size="31.3979">t</tspan><tspan x="111.618" y="0" fill="#808184" font-family="'MinionPro-Bold'" font-size="31.3979">i</tspan><tspan x="121.068" y="0" fill="#808184" font-family="'MinionPro-Bold'" font-size="31.3979">c</tspan><tspan x="134.476" y="0" fill="#808184" font-family="'MinionPro-Bold'" font-size="31.3979">u</tspan><tspan x="151.745" y="0.001" fill="#808184" font-family="'MinionPro-Bold'" font-size="31.3979">t</tspan></text>
<text transform="matrix(0.7541 -0.9951 0.797 0.604 635.8701 845.501)"><tspan x="0" y="0" fill="#808184" font-family="'MinionPro-Bold'" font-size="31.3979">R</tspan><tspan x="20.973" y="-0.001" fill="#808184" font-family="'MinionPro-Bold'" font-size="31.3979">i</tspan><tspan x="30.236" y="-0.002" fill="#808184" font-family="'MinionPro-Bold'" font-size="31.3979">v</tspan><tspan x="44.742" y="0" fill="#808184" font-family="'MinionPro-Bold'" font-size="31.3979">e</tspan><tspan x="58.305" y="0" fill="#808184" font-family="'MinionPro-Bold'" font-size="31.3979">r</tspan></text>
<text transform="matrix(1 0 0 1 1218.7861 1014.3154)"><tspan x="0" y="0" fill="#2E3192" font-family="'MyriadPro-Bold'" font-size="33.5381" letter-spacing="-1">T</tspan><tspan x="16.601" y="0" fill="#2E3192" font-family="'MyriadPro-Bold'" font-size="33.5381">r</tspan><tspan x="29.278" y="0" fill="#2E3192" font-family="'MyriadPro-Bold'" font-size="33.5381">ust </tspan><tspan x="82.469" y="0" fill="#2E3192" font-family="'MyriadPro-Bold'" font-size="33.5381">L</tspan><tspan x="99.74" y="0" fill="#2E3192" font-family="'MyriadPro-Bold'" font-size="33.5381">ands</tspan></text>
<text transform="matrix(1 0 0 1 1179.6807 1139.6475)"><tspan x="0" y="0" fill="#2E3192" font-family="'MyriadPro-Bold'" font-size="33.5381">P</tspan><tspan x="19.184" y="0" fill="#2E3192" font-family="'MyriadPro-Bold'" font-size="33.5381">rim</tspan><tspan x="69.959" y="0" fill="#2E3192" font-family="'MyriadPro-Bold'" font-size="33.5381">ev</tspan><tspan x="105.04" y="0" fill="#2E3192" font-family="'MyriadPro-Bold'" font-size="33.5381">al </tspan><tspan x="138.745" y="0" fill="#2E3192" font-family="'MyriadPro-Bold'" font-size="33.5381">F</tspan><tspan x="155.581" y="0" fill="#2E3192" font-family="'MyriadPro-Bold'" font-size="33.5381">o</tspan><tspan x="174.933" y="0" fill="#2E3192" font-family="'MyriadPro-Bold'" font-size="33.5381">r</tspan><tspan x="187.441" y="0" fill="#2E3192" font-family="'MyriadPro-Bold'" font-size="33.5381">est</tspan></text>
<text transform="matrix(1 0 0 1 1362.6641 1087.0264)"><tspan x="0" y="0" fill="#2E3192" font-family="'MyriadPro-Bold'" font-size="33.5381">E</tspan><tspan x="18.043" y="0" fill="#2E3192" font-family="'MyriadPro-Bold'" font-size="33.5381">lm </tspan><tspan x="62.883" y="0" fill="#2E3192" font-family="'MyriadPro-Bold'" font-size="33.5381">S</tspan><tspan x="80.825" y="0" fill="#2E3192" font-family="'MyriadPro-Bold'" font-size="33.5381">tump</tspan></text>
<text transform="matrix(1 0 0 1 1401.8037 1171.6426)"><tspan x="0" y="0" fill="#2E3192" font-family="'MyriadPro-Bold'" font-size="33.5381" letter-spacing="-1">T</tspan><tspan x="16.601" y="0" fill="#2E3192" font-family="'MyriadPro-Bold'" font-size="33.5381">r</tspan><tspan x="29.11" y="0" fill="#2E3192" font-family="'MyriadPro-Bold'" font-size="33.5381">ee </tspan><tspan x="71.301" y="0" fill="#2E3192" font-family="'MyriadPro-Bold'" font-size="33.5381">H</tspan><tspan x="94.342" y="0" fill="#2E3192" font-family="'MyriadPro-Bold'" font-size="33.5381">ouse</tspan></text>
<text transform="matrix(1 0 0 1 791.1611 849.4883)"><tspan x="0" y="0" fill="#B9529F" font-family="'MyriadPro-BoldIt'" font-size="39.4779">CENTER </tspan><tspan x="141.21" y="0" fill="#B9529F" font-family="'MyriadPro-BoldIt'" font-size="39.4779">D</tspan><tspan x="167.542" y="0" fill="#B9529F" font-family="'MyriadPro-BoldIt'" font-size="39.4779">AR</tspan><tspan x="214.955" y="0" fill="#B9529F" font-family="'MyriadPro-BoldIt'" font-size="39.4779">B</tspan><tspan x="237.062" y="0" fill="#B9529F" font-family="'MyriadPro-BoldIt'" font-size="39.4779">Y</tspan></text>
<text transform="matrix(1 0 0 1 1296.6758 1271.4277)"><tspan x="0" y="0" fill="#B9529F" font-family="'MyriadPro-BoldIt'" font-size="39.4779">U</tspan><tspan x="25.858" y="0" fill="#B9529F" font-family="'MyriadPro-BoldIt'" font-size="39.4779">PP</tspan><tspan x="70.389" y="0" fill="#B9529F" font-family="'MyriadPro-BoldIt'" font-size="39.4779">ER </tspan><tspan x="121.077" y="0" fill="#B9529F" font-family="'MyriadPro-BoldIt'" font-size="39.4779">D</tspan><tspan x="147.369" y="0" fill="#B9529F" font-family="'MyriadPro-BoldIt'" font-size="39.4779">AR</tspan><tspan x="194.782" y="0" fill="#B9529F" font-family="'MyriadPro-BoldIt'" font-size="39.4779">B</tspan><tspan x="216.889" y="0" fill="#B9529F" font-family="'MyriadPro-BoldIt'" font-size="39.4779">Y</tspan></text>
<text transform="matrix(1 0 0 1 509.5259 1096.1465)"><tspan x="0" y="0" fill="#B9529F" font-family="'MyriadPro-BoldIt'" font-size="39.4779">RIVER </tspan><tspan x="108.641" y="0" fill="#B9529F" font-family="'MyriadPro-BoldIt'" font-size="39.4779">D</tspan><tspan x="134.973" y="0" fill="#B9529F" font-family="'MyriadPro-BoldIt'" font-size="39.4779">AR</tspan><tspan x="182.386" y="0" fill="#B9529F" font-family="'MyriadPro-BoldIt'" font-size="39.4779">B</tspan><tspan x="204.493" y="0" fill="#B9529F" font-family="'MyriadPro-BoldIt'" font-size="39.4779">Y</tspan></text>
<text transform="matrix(1 0 0 1 987.6035 540.7314)"><tspan x="0" y="0" fill="#B9529F" font-family="'MyriadPro-BoldIt'" font-size="39.4779">D</tspan><tspan x="26.332" y="0" fill="#B9529F" font-family="'MyriadPro-BoldIt'" font-size="39.4779">AR</tspan><tspan x="73.744" y="0" fill="#B9529F" font-family="'MyriadPro-BoldIt'" font-size="39.4779">B</tspan><tspan x="95.852" y="0" fill="#B9529F" font-family="'MyriadPro-BoldIt'" font-size="39.4779">Y DEP</tspan><tspan x="194.979" y="0" fill="#B9529F" font-family="'MyriadPro-BoldIt'" font-size="39.4779" letter-spacing="-1">O</tspan><tspan x="221.429" y="0" fill="#B9529F" font-family="'MyriadPro-BoldIt'" font-size="39.4779">T</tspan></text>
<text transform="matrix(0.948 -0.3182 0.3182 0.948 1213.4414 645.2842)"><tspan x="0" y="0" fill="#2E3192" font-family="'MyriadPro-Bold'" font-size="33.5382">I</tspan><tspan x="9.658" y="0.001" fill="#2E3192" font-family="'MyriadPro-Bold'" font-size="33.5382">k</tspan><tspan x="27.4" y="0.001" fill="#2E3192" font-family="'MyriadPro-Bold'" font-size="33.5382">e</tspan><tspan x="44.37" y="0" fill="#2E3192" font-family="'MyriadPro-Bold'" font-size="33.5382" letter-spacing="-3">’</tspan><tspan x="49.972" y="0" fill="#2E3192" font-family="'MyriadPro-Bold'" font-size="33.5382">s</tspan></text>
<text transform="matrix(0.948 -0.3182 0.3182 0.948 1161.9805 696.2344)"><tspan x="0" y="0" fill="#2E3192" font-family="'MyriadPro-Bold'" font-size="33.5382">A</tspan><tspan x="21.531" y="0" fill="#2E3192" font-family="'MyriadPro-Bold'" font-size="33.5382">u</tspan><tspan x="41.083" y="0" fill="#2E3192" font-family="'MyriadPro-Bold'" font-size="33.5382">c</tspan><tspan x="56.747" y="0" fill="#2E3192" font-family="'MyriadPro-Bold'" font-size="33.5382">tion </tspan><tspan x="124.022" y="0" fill="#2E3192" font-family="'MyriadPro-Bold'" font-size="33.5382">B</tspan><tspan x="144.381" y="0" fill="#2E3192" font-family="'MyriadPro-Bold'" font-size="33.5382">arn</tspan></text>
<text transform="matrix(1 0 0 1 407.5303 206.1641)"><tspan x="0" y="0" fill="#2E3192" font-family="'MyriadPro-Bold'" font-size="33.5381">Si</tspan><tspan x="27.299" y="0" fill="#2E3192" font-family="'MyriadPro-Bold'" font-size="33.5381">t</tspan><tspan x="39.473" y="0" fill="#2E3192" font-family="'MyriadPro-Bold'" font-size="33.5381">e of </tspan><tspan x="101.518" y="0" fill="#2E3192" font-family="'MyriadPro-Bold'" font-size="33.5381">f</tspan><tspan x="112.619" y="0" fill="#2E3192" font-family="'MyriadPro-Bold'" font-size="33.5381">ormer</tspan></text>
<text transform="matrix(1 0 0 1 392.8071 238.0923)"><tspan x="0" y="0" fill="#2E3192" font-family="'MyriadPro-Bold'" font-size="33.5381">B</tspan><tspan x="20.357" y="0" fill="#2E3192" font-family="'MyriadPro-Bold'" font-size="33.5381">as</tspan><tspan x="52.621" y="0" fill="#2E3192" font-family="'MyriadPro-Bold'" font-size="33.5381">k</tspan><tspan x="70.362" y="0" fill="#2E3192" font-family="'MyriadPro-Bold'" font-size="33.5381">e</tspan><tspan x="88.07" y="0" fill="#2E3192" font-family="'MyriadPro-Bold'" font-size="33.5381">t</tspan><tspan x="100.512" y="0" fill="#2E3192" font-family="'MyriadPro-Bold'" font-size="33.5381">ville sign</tspan></text>
<text transform="matrix(1 0 0 1 372.6841 270.0205)"><tspan x="0" y="0" fill="#2E3192" font-family="'MyriadPro-Bold'" font-size="33.5381">and Jo</tspan><tspan x="97.26" y="0" fill="#2E3192" font-family="'MyriadPro-Bold'" font-size="33.5381">r</tspan><tspan x="109.769" y="0" fill="#2E3192" font-family="'MyriadPro-Bold'" font-size="33.5381">dan shacks</tspan></text>
<text transform="matrix(1 0 0 1 1041.0312 89.3174)"><tspan x="0" y="0" fill="#2E3192" font-family="'MyriadPro-Bold'" font-size="33.5381">O</tspan><tspan x="24.181" y="0" fill="#2E3192" font-family="'MyriadPro-Bold'" font-size="33.5381">riginal si</tspan><tspan x="152.025" y="0" fill="#2E3192" font-family="'MyriadPro-Bold'" font-size="33.5381">t</tspan><tspan x="164.199" y="0" fill="#2E3192" font-family="'MyriadPro-Bold'" font-size="33.5381">e of</tspan></text>
<text transform="matrix(1 0 0 1 1049.751 121.2456)"><tspan x="0" y="0" fill="#2E3192" font-family="'MyriadPro-Bold'" font-size="33.5381">C</tspan><tspan x="19.351" y="0" fill="#2E3192" font-family="'MyriadPro-Bold'" font-size="33.5381">o</tspan><tspan x="38.77" y="0" fill="#2E3192" font-family="'MyriadPro-Bold'" font-size="33.5381">o</tspan><tspan x="58.121" y="0" fill="#2E3192" font-family="'MyriadPro-Bold'" font-size="33.5381">t</tspan><tspan x="70.563" y="0" fill="#2E3192" font-family="'MyriadPro-Bold'" font-size="33.5381">y</tspan><tspan x="88.774" y="0" fill="#2E3192" font-family="'MyriadPro-Bold'" font-size="33.5381" letter-spacing="-3">’</tspan><tspan x="94.408" y="0" fill="#2E3192" font-family="'MyriadPro-Bold'" font-size="33.5381">s </tspan><tspan x="115.738" y="0" fill="#2E3192" font-family="'MyriadPro-Bold'" font-size="33.5381">C</tspan><tspan x="135.391" y="0" fill="#2E3192" font-family="'MyriadPro-Bold'" font-size="33.5381">abin</tspan></text>
<text transform="matrix(0.9891 -0.147 0.147 0.9891 768.8516 294.0762)"><tspan x="0" y="0" fill="#2E3192" font-family="'MyriadPro-Bold'" font-size="33.5381">G</tspan><tspan x="22.973" y="0" fill="#2E3192" font-family="'MyriadPro-Bold'" font-size="33.5381">r</tspan><tspan x="35.483" y="0" fill="#2E3192" font-family="'MyriadPro-Bold'" font-size="33.5381">e</tspan><tspan x="53.191" y="-0.001" fill="#2E3192" font-family="'MyriadPro-Bold'" font-size="33.5381">a</tspan><tspan x="70.664" y="0" fill="#2E3192" font-family="'MyriadPro-Bold'" font-size="33.5381">t</tspan></text>
<text transform="matrix(0.9891 -0.147 0.147 0.9891 773.5469 325.6572)"><tspan x="0" y="0" fill="#2E3192" font-family="'MyriadPro-Bold'" font-size="33.5381">M</tspan><tspan x="28.473" y="0.001" fill="#2E3192" font-family="'MyriadPro-Bold'" font-size="33.5381">ead</tspan><tspan x="83.878" y="0.001" fill="#2E3192" font-family="'MyriadPro-Bold'" font-size="33.5381">o</tspan><tspan x="102.928" y="0.001" fill="#2E3192" font-family="'MyriadPro-Bold'" font-size="33.5381">w</tspan></text>
<text transform="matrix(0.9891 -0.147 0.147 0.9891 778.2412 357.2383)"><tspan x="0" y="0" fill="#2E3192" font-family="'MyriadPro-Bold'" font-size="33.5381">V</tspan><tspan x="20.458" y="-0.001" fill="#2E3192" font-family="'MyriadPro-Bold'" font-size="33.5381">illage</tspan></text>
<text transform="matrix(1 0 0 1 913.3877 729.8281)"><tspan x="0" y="0" fill="#2E3192" font-family="'MyriadPro-Bold'" font-size="33.5381">E</tspan><tspan x="18.043" y="0" fill="#2E3192" font-family="'MyriadPro-Bold'" font-size="33.5381">lman Pla</tspan><tspan x="146.66" y="0" fill="#2E3192" font-family="'MyriadPro-Bold'" font-size="33.5381">c</tspan><tspan x="161.45" y="0" fill="#2E3192" font-family="'MyriadPro-Bold'" font-size="33.5381">e</tspan></text>
<text transform="matrix(1 0 0 1 936.2607 686.3623)"><tspan x="0" y="0" fill="#2E3192" font-family="'MyriadPro-Bold'" font-size="33.5381">C</tspan><tspan x="19.317" y="0" fill="#2E3192" font-family="'MyriadPro-Bold'" font-size="33.5381">ut</tspan><tspan x="51.178" y="0" fill="#2E3192" font-family="'MyriadPro-Bold'" font-size="33.5381">t</tspan><tspan x="63.352" y="0" fill="#2E3192" font-family="'MyriadPro-Bold'" font-size="33.5381">er Pla</tspan><tspan x="146.995" y="0" fill="#2E3192" font-family="'MyriadPro-Bold'" font-size="33.5381">c</tspan><tspan x="161.785" y="0" fill="#2E3192" font-family="'MyriadPro-Bold'" font-size="33.5381">e</tspan></text>
<text transform="matrix(0.962 -0.2731 0.2731 0.962 1164.751 879.1592)"><tspan x="0" y="0" fill="#2E3192" font-family="'MyriadPro-Bold'" font-size="33.5381">M</tspan><tspan x="28.474" y="0" fill="#2E3192" font-family="'MyriadPro-Bold'" font-size="33.5381">c</tspan><tspan x="43.599" y="0" fill="#2E3192" font-family="'MyriadPro-Bold'" font-size="33.5381">C</tspan><tspan x="62.916" y="0" fill="#2E3192" font-family="'MyriadPro-Bold'" font-size="33.5381">u</tspan><tspan x="82.468" y="0" fill="#2E3192" font-family="'MyriadPro-Bold'" font-size="33.5381">r</tspan><tspan x="95.917" y="0.001" fill="#2E3192" font-family="'MyriadPro-Bold'" font-size="33.5381">tin</tspan></text>
<text transform="matrix(0.962 -0.2731 0.2731 0.962 1173.4707 909.874)"><tspan x="0" y="0" fill="#2E3192" font-family="'MyriadPro-Bold'" font-size="33.5381">Pla</tspan><tspan x="46.416" y="-0.001" fill="#2E3192" font-family="'MyriadPro-Bold'" font-size="33.5381">c</tspan><tspan x="61.206" y="0" fill="#2E3192" font-family="'MyriadPro-Bold'" font-size="33.5381">e</tspan></text>
<text transform="matrix(1 0 0 1 707.335 1007.3857)"><tspan x="0" y="0" fill="#2E3192" font-family="'MyriadPro-Bold'" font-size="33.5381" letter-spacing="-2">T</tspan><tspan x="15.695" y="0" fill="#2E3192" font-family="'MyriadPro-Bold'" font-size="33.5381">o</tspan><tspan x="34.745" y="0" fill="#2E3192" font-family="'MyriadPro-Bold'" font-size="33.5381">wn</tspan></text>
<text transform="matrix(1 0 0 1 717.5977 1039.3135)" fill="#2E3192" font-family="'MyriadPro-Bold'" font-size="33.5381">Hall</text>
<text transform="matrix(1 0 0 1 961.3857 1256.4736)"><tspan x="0" y="0" fill="#2E3192" font-family="'MyriadPro-Bold'" font-size="33.5381"> </tspan><tspan x="6.774" y="0" fill="#2E3192" font-family="'MyriadPro-Bold'" font-size="33.5381">L</tspan><tspan x="24.046" y="0" fill="#2E3192" font-family="'MyriadPro-Bold'" font-size="33.5381">a</tspan><tspan x="41.486" y="0" fill="#2E3192" font-family="'MyriadPro-Bold'" font-size="33.5381">t</tspan><tspan x="53.66" y="0" fill="#2E3192" font-family="'MyriadPro-Bold'" font-size="33.5381">ou</tspan><tspan x="92.563" y="0" fill="#2E3192" font-family="'MyriadPro-Bold'" font-size="33.5381">r</tspan><tspan x="105.911" y="0" fill="#2E3192" font-family="'MyriadPro-Bold'" font-size="33.5381" letter-spacing="-3">’</tspan><tspan x="111.546" y="0" fill="#2E3192" font-family="'MyriadPro-Bold'" font-size="33.5381">s</tspan></text>
<text transform="matrix(1 0 0 1 961.3857 1288.4014)"><tspan x="0" y="0" fill="#2E3192" font-family="'MyriadPro-Bold'" font-size="33.5381">S</tspan><tspan x="18.11" y="0" fill="#2E3192" font-family="'MyriadPro-Bold'" font-size="33.5381">po</tspan><tspan x="57.719" y="0" fill="#2E3192" font-family="'MyriadPro-Bold'" font-size="33.5381">o</tspan><tspan x="77.069" y="0" fill="#2E3192" font-family="'MyriadPro-Bold'" font-size="33.5381">n</tspan><tspan x="96.086" y="0" fill="#2E3192" font-family="'MyriadPro-Bold'" font-size="33.5381">w</tspan><tspan x="121.071" y="0" fill="#2E3192" font-family="'MyriadPro-Bold'" font-size="33.5381">o</tspan><tspan x="140.523" y="0" fill="#2E3192" font-family="'MyriadPro-Bold'" font-size="33.5381">o</tspan><tspan x="159.941" y="0" fill="#2E3192" font-family="'MyriadPro-Bold'" font-size="33.5381">d </tspan><tspan x="186.705" y="0" fill="#2E3192" font-family="'MyriadPro-Bold'" font-size="33.5381">C</tspan><tspan x="206.357" y="0" fill="#2E3192" font-family="'MyriadPro-Bold'" font-size="33.5381">abin</tspan></text>
<text transform="matrix(0.899 -0.4379 0.4379 0.899 1341.0762 1380.9736)"><tspan x="0" y="0" fill="#2E3192" font-family="'MyriadPro-Bold'" font-size="33.538">S</tspan><tspan x="18.379" y="0" fill="#2E3192" font-family="'MyriadPro-Bold'" font-size="33.538">almon</tspan></text>
<text transform="matrix(0.899 -0.4379 0.4379 0.899 1355.0576 1409.6768)"><tspan x="0" y="0" fill="#2E3192" font-family="'MyriadPro-Bold'" font-size="33.538">E</tspan><tspan x="18.043" y="-0.001" fill="#2E3192" font-family="'MyriadPro-Bold'" font-size="33.538">st</tspan><tspan x="44.906" y="-0.001" fill="#2E3192" font-family="'MyriadPro-Bold'" font-size="33.538">a</tspan><tspan x="62.347" y="0" fill="#2E3192" font-family="'MyriadPro-Bold'" font-size="33.538">t</tspan><tspan x="74.521" y="0" fill="#2E3192" font-family="'MyriadPro-Bold'" font-size="33.538">e and</tspan></text>
<text transform="matrix(0.899 -0.4379 0.4379 0.899 1369.04 1438.3799)"><tspan x="0" y="0" fill="#2E3192" font-family="'MyriadPro-Bold'" font-size="33.538">C</tspan><tspan x="19.351" y="0" fill="#2E3192" font-family="'MyriadPro-Bold'" font-size="33.538">o</tspan><tspan x="38.769" y="-0.001" fill="#2E3192" font-family="'MyriadPro-Bold'" font-size="33.538">o</tspan><tspan x="58.119" y="0" fill="#2E3192" font-family="'MyriadPro-Bold'" font-size="33.538">t</tspan><tspan x="70.596" y="0" fill="#2E3192" font-family="'MyriadPro-Bold'" font-size="33.538">y</tspan><tspan x="88.774" y="0" fill="#2E3192" font-family="'MyriadPro-Bold'" font-size="33.538" letter-spacing="-3">’</tspan><tspan x="94.374" y="0" fill="#2E3192" font-family="'MyriadPro-Bold'" font-size="33.538">s</tspan></text>
<text transform="matrix(0.899 -0.4379 0.4379 0.899 1383.0225 1467.085)"><tspan x="0" y="0" fill="#2E3192" font-family="'MyriadPro-Bold'" font-size="33.538">C</tspan><tspan x="19.653" y="-0.001" fill="#2E3192" font-family="'MyriadPro-Bold'" font-size="33.538">abin</tspan></text>
<text transform="matrix(0.4878 0.873 -0.873 0.4878 1448.2383 738.9561)"><tspan x="0" y="0" fill="#2E3192" font-family="'MyriadPro-Bold'" font-size="33.5382">G</tspan><tspan x="22.974" y="0" fill="#2E3192" font-family="'MyriadPro-Bold'" font-size="33.5382">r</tspan><tspan x="35.382" y="-0.001" fill="#2E3192" font-family="'MyriadPro-Bold'" font-size="33.5382">a</tspan><tspan x="53.089" y="0" fill="#2E3192" font-family="'MyriadPro-Bold'" font-size="33.5382">c</tspan><tspan x="67.88" y="0" fill="#2E3192" font-family="'MyriadPro-Bold'" font-size="33.5382">e </tspan><tspan x="92.364" y="0" fill="#2E3192" font-family="'MyriadPro-Bold'" font-size="33.5382">P</tspan><tspan x="111.077" y="0" fill="#2E3192" font-family="'MyriadPro-Bold'" font-size="33.5382">ond</tspan></text>
<g>
	<defs>
		<rect id="SVGID_3_" y="-967.273" width="1727.338" height="2500.481"/>
	</defs>
	<clipPath id="SVGID_4_">
		<use xlink:href="#SVGID_3_"  overflow="visible"/>
	</clipPath>
	
		<line clip-path="url(#SVGID_4_)" fill="none" stroke="#231F20" stroke-miterlimit="10" x1="504.054" y1="1436.838" x2="626.261" y2="1436.838"/>
	<line clip-path="url(#SVGID_4_)" fill="#FFFFFF" x1="504.054" y1="1448.3" x2="504.054" y2="1424.518"/>
	
		<line clip-path="url(#SVGID_4_)" fill="none" stroke="#231F20" stroke-miterlimit="10" x1="504.054" y1="1448.3" x2="504.054" y2="1424.518"/>
	<line clip-path="url(#SVGID_4_)" fill="#FFFFFF" x1="626.26" y1="1448.3" x2="626.26" y2="1424.518"/>
	
		<line clip-path="url(#SVGID_4_)" fill="none" stroke="#231F20" stroke-miterlimit="10" x1="626.26" y1="1448.3" x2="626.26" y2="1424.518"/>
</g>
<text transform="matrix(1 0 0 1 519.1523 1427.0312)"><tspan x="0" y="0" fill="#010101" font-family="'MyriadPro-Regular'" font-size="30.75">1-</tspan><tspan x="25.214" y="0" fill="#010101" font-family="'MyriadPro-Regular'" font-size="30.75">M</tspan><tspan x="50.306" y="0" fill="#010101" font-family="'MyriadPro-Regular'" font-size="30.75">ile</tspan></text>
<text transform="matrix(1 0 0 1 288.207 503.4141)"><tspan x="0" y="0" fill="#00A651" font-family="'MinionPro-BoldCnIt'" font-size="87.3737" letter-spacing="-7">V</tspan><tspan x="46.045" y="0" fill="#00A651" font-family="'MinionPro-BoldCnIt'" font-size="87.3737" letter-spacing="1">e</tspan><tspan x="81.343" y="0" fill="#00A651" font-family="'MinionPro-BoldCnIt'" font-size="87.3737">r</tspan><tspan x="114.545" y="0" fill="#00A651" font-family="'MinionPro-BoldCnIt'" font-size="87.3737">mo</tspan><tspan x="220.527" y="0" fill="#00A651" font-family="'MinionPro-BoldCnIt'" font-size="87.3737" letter-spacing="-1">n</tspan><tspan x="264.476" y="0" fill="#00A651" font-family="'MinionPro-BoldCnIt'" font-size="87.3737">t</tspan></text>
<text transform="matrix(1 0 0 1 990.7793 442.2529)"><tspan x="0" y="0" fill="#00A651" font-family="'MinionPro-BoldCnIt'" font-size="87.3737" letter-spacing="-1">N</tspan><tspan x="53.734" y="0" fill="#00A651" font-family="'MinionPro-BoldCnIt'" font-size="87.3737" letter-spacing="1">e</tspan><tspan x="89.208" y="0" fill="#00A651" font-family="'MinionPro-BoldCnIt'" font-size="87.3737">w </tspan><tspan x="162.95" y="0" fill="#00A651" font-family="'MinionPro-BoldCnIt'" font-size="87.3737" letter-spacing="-1">H</tspan><tspan x="220.966" y="0" fill="#00A651" font-family="'MinionPro-BoldCnIt'" font-size="87.3737">a</tspan><tspan x="262.729" y="0" fill="#00A651" font-family="'MinionPro-BoldCnIt'" font-size="87.3737" letter-spacing="-1">m</tspan><tspan x="327.647" y="0" fill="#00A651" font-family="'MinionPro-BoldCnIt'" font-size="87.3737">p</tspan><tspan x="370.11" y="0" fill="#00A651" font-family="'MinionPro-BoldCnIt'" font-size="87.3737">s</tspan><tspan x="398.943" y="0" fill="#00A651" font-family="'MinionPro-BoldCnIt'" font-size="87.3737">h</tspan><tspan x="442.018" y="0" fill="#00A651" font-family="'MinionPro-BoldCnIt'" font-size="87.3737">i</tspan><tspan x="466.046" y="0" fill="#00A651" font-family="'MinionPro-BoldCnIt'" font-size="87.3737">r</tspan><tspan x="497.675" y="0" fill="#00A651" font-family="'MinionPro-BoldCnIt'" font-size="87.3737">e</tspan></text>
<g>
	<defs>
		<rect id="SVGID_5_" y="-967.273" width="1727.338" height="2500.481"/>
	</defs>
	<clipPath id="SVGID_6_">
		<use xlink:href="#SVGID_5_"  overflow="visible"/>
	</clipPath>
	<path clip-path="url(#SVGID_6_)" fill="none" stroke="#231F20" stroke-width="5" stroke-miterlimit="10" d="M1592.006,571.297
		c-39.894,1.59-79.986,2.669-119.707,4.122c-16.307,0.627-32.614,0-48.923-1.882c-10.663-1.254-20.698-2.509-31.36-3.136
		c-25.09-1.254-49.552,0.627-74.641,4.391c-12.544,1.881-23.834,5.645-36.379,8.154c-16.935,3.136-32.615,5.017-49.55,7.525
		c-10.036,1.882-18.817,4.392-28.226,7.527c-6.271,2.509-12.545,5.018-18.816,8.154c-13.172,7.526-26.97,12.544-40.143,20.697
		c-5.018,2.51-10.662,4.392-15.681,8.154c-3.763,1.882-7.526,3.136-11.29,5.018c-24.461,13.173-140.498-38.261-146.77-55.822
		c-7.527-22.58-20.071-42.024-30.107-63.35c-6.898-23.835-10.662-47.042-15.053-72.131c-8.154-50.178-15.053-96.592-23.834-146.77
		c-3.764-16.936-5.019-33.243-1.882-50.178c9.407-50.805,22.341-161.88,28.296-212.091"/>
	<path clip-path="url(#SVGID_6_)" fill="none" stroke="#231F20" stroke-width="5" stroke-miterlimit="10" d="M786.77,1443.155
		c0,0-12.544-83.25,2.281-118.603c14.825-35.352,83.25-231.502,85.53-260.012c2.281-28.511-7.982-55.881-18.246-84.391
		c-10.264-28.51-34.213-41.055-51.319-49.037c-17.105-7.983-43.335-41.055-37.633-75.268c5.702-34.212,25.089-92.372,38.774-106.057
		c13.685-13.686,71.846-72.986,82.109-102.638c10.264-29.649,46.756-144.83,46.756-144.83"/>
	<path clip-path="url(#SVGID_6_)" fill="none" stroke="#231F20" stroke-width="5" stroke-miterlimit="10" d="M278.212,1440.874
		c0,0,0-22.809,2.281-57.02c2.281-34.212-26.229-59.302-39.914-100.356c-13.685-41.054-14.826-39.914-23.949-92.373
		c-9.123-52.458,9.123-28.51,39.914-66.144c30.791-37.633,106.058-102.636,141.411-116.321c35.352-13.684,47.897-3.421,77.547,6.843
		c29.651,10.265,52.459-3.422,71.846-9.123c19.386-5.702,13.685-26.229,30.791-36.492c17.106-10.265,23.948-20.528,47.897-28.512
		c23.949-7.982,50.178-29.649,62.722-42.194c12.545-12.544,30.791-51.318,39.914-68.424c9.124-17.106,52.802-106.214,68.768-109.635
		c15.965-3.422,42.631-115.047,60.878-110.485l43.913-10.734"/>
	<path clip-path="url(#SVGID_6_)" fill="none" stroke="#231F20" stroke-width="5" stroke-miterlimit="10" d="M867.739,1008.661
		c9.466-4.596,21.507-9.254,31.899-11.717c13.313-3.156,26.455,1.407,39.346-4.096c15.948-6.808,22.144-22.045,33.193-34.425
		c16.5-18.488,42.191-26.84,58.9-45.494c14.196-15.851,14.008-39.278,34.611-49.977c13.566-7.044,31.29-6.214,45.95-9.939
		c25.915-6.585,49.175-13.575,73.897-23.222c23.028-8.987,40.367-24.812,61.24-37.497c8.381-5.093,19.498-20.264,28.507-21.937
		c10.197-1.896,26.534,9.906,35.651,13.615c10.885,4.429,30.334,7.705,38.903,14.738c4.397,3.609,6.371,11.665,9.928,16.342
		c7.489,9.849,19.586,16.521,26.982,25.967c13.869,17.713,5.276,47.803,13.546,68.723"/>
	<path clip-path="url(#SVGID_6_)" fill="none" stroke="#231F20" stroke-width="5" stroke-miterlimit="10" d="M873.505,1037.952
		c2.924,11.633,32.96-8.492,44.274-3.571c13.023,5.663,25.145,11.076,39.164,14.533c23.945,5.902,40.421,11.595,59.213,26.334
		c24.346,19.097,47.779,36.138,65.135,62.059c22.442,33.517,62.246,55.881,98.115,74.559c19.467,10.138,41.876,13.014,60.374,24.296
		c20.845,12.714,22.942,32.272,33.382,51.969c14.441,27.25,31.67,52.984,43.799,81.491c4.93,11.585,11.187,22.804,15.704,34.428
		c3.501,9.011,3.296,18.805,6.902,27.522c3.315,8.019,12.237,17.955,18.546,24.128"/>
	<path clip-path="url(#SVGID_6_)" fill="#819499" d="M892.957,495.271c-1.128-11.794,2.531-23.385-3.287-28.86
		c-0.857-9.509-6.948-15.318-12.423-20.458c-5.529-5.193-11.814-10.074-18.266-14.248c-4.325-8.454-12.765-11.383-20.458-15.709
		c-5.816-3.271-10.498-8.835-15.709-13.518c-15.099-13.564-32.109-26.348-47.127-39.819c0.123-2.91-1.026-4.844-1.827-6.941
		c-0.758-1.988-2.458-3.81-2.922-5.479c-0.366-1.317,0.393-2.95,0-4.385c-0.913-3.329-3.85-4.207-5.846-6.576
		c-1.014-1.203-1.617-3.403-2.922-5.113c-5.172-6.778-10.702-12.623-13.517-21.556c-0.545-1.729-0.553-3.896-1.096-5.845
		c-1.146-4.112-2.552-9.304-3.653-14.613c-0.679-3.273-2.116-6.4-2.557-9.133c-0.53-3.274,0.376-8.183,0.365-12.786
		c-0.02-8.353-0.276-15.267,1.096-24.477c0.989-6.639,1.827-12.539,1.827-19.362c0-6.461-0.913-13.566,0-20.824
		c0.873-6.953,4.786-12.602,5.845-19.727c0.532-3.587-0.539-6.811-0.731-10.23c-0.554-9.84,0.057-20.55,1.461-30.687
		c0.488-3.521-2.456-48.337-1.999-52.016c0.443-3.56,1.863-9.922,2.352-13.385c1.287-9.125-1.99-36.538,0.181-43.593l-20.627-0.759
		c-1.061,18.752,3.099,37.831-0.099,64.068c-0.395,3.247-2.427,60.777-3.554,65.413c-0.818,3.369,2.115,5.816,2.192,8.402
		c0.093,3.114-0.093,6.984-0.731,10.229c-0.302,1.542-1.987,2.991-2.191,4.75c-0.193,1.653,0.729,3.25,0.73,4.749
		c0.003,3.045-0.75,7.186-1.461,10.229c-0.889,3.801-3.677,7.798-2.557,12.786c-5.286,8.91-5.188,22.595-9.499,31.418
		c1.07,5.134-1.179,10.653-1.826,16.44c-0.857,7.654,2.954,14.729,1.826,21.189c0.503,2.115,1.502,3.042,2.557,5.114
		c0.621,1.218,0.491,2.779,1.097,4.019c1.084,2.22,3.299,3.814,4.018,6.576c1.195,4.586-0.752,10.097,0.365,16.074
		c1.002,5.362,5.995,6.833,9.133,10.594c4.461,5.345,5.679,13.505,8.403,21.189c1.474,4.159,4.259,8.946,6.21,13.517
		c1.074,2.515,2.759,5.562,4.019,7.307c0.956,1.323,2.792,1.857,4.019,3.288c1.058,1.234,1.243,3.08,2.191,4.019
		c0.965,0.954,2.579,1.356,3.654,2.191c4.362,3.389,7.624,8.435,12.056,10.96c5.717-1.247,10.554,2.609,13.882,6.21
		c0.695,0.754,1.02,1.668,1.826,2.192c1.29,0.839,2.719,0.519,4.019,1.096c2.582,1.148,4.111,3.943,6.941,4.385
		c1.057,4.769,4.983,6.303,8.768,9.133c4.413,3.299,8.437,8.021,13.517,11.325c3.81,2.478,9.199,5.186,10.96,9.863
		c3.896,1.52,6.418,4.521,9.498,6.941c1.215,0.955,2.928,1.319,4.019,2.191c1.29,1.032,2.243,2.884,3.653,4.02
		c4.033,3.249,9.115,4.99,12.056,8.768c1.792,2.303,2.491,5.427,6.21,6.211c2.327,3.271,6.01,6.886,7.672,11.324
		c0.345,0.922-0.041,2.544,0.366,3.653c0.461,1.264,1.27,1.497,1.46,2.558c0.621,3.448,0.385,7.983,0,11.325
		c-0.243,2.127-1.599,4.132-1.826,6.21c-0.148,1.35,0.407,2.706,0.366,4.02c-0.113,3.587-2.092,6.619-1.827,9.863
		c-4.06,4.955-2.114,14.671-8.038,18.267c-0.555,1.026-0.347,2.817-0.73,4.019c-3.888,6.016-8.945,9.014-11.324,16.074
		c-3.694,3.796-6.439,7.408-10.594,10.229c-1.546,1.05-1.773,2.897-2.923,4.385c-2.068,2.673-5.775,4.144-7.672,7.306
		c-3.288,0.974-6.022,2.502-7.672,5.115c-4.796,1.562-10.08,4.561-15.709,2.191c-0.825-8.849-9.039-7.487-17.535-8.402
		c-3.323-0.358-7.121-1.139-10.595-1.826c-3.363-0.667-6.678-2.465-9.498-2.559c-0.223-0.007-0.454-0.486-0.731-0.364
		c-9.366,4.147-21.578,1.016-29.591,4.749c-3.802,1.771-7.165,5.634-10.96,8.402c-7.57,5.522-12.993,11.284-19.362,17.535
		c-3.878,7.064-7.161,13.5-10.229,21.92c-1.37,3.761-3.188,6.737-3.653,11.69c-0.185,1.967,0.268,4.13,0,6.211
		c-0.209,1.614-1.217,3.047-1.462,4.749c-0.61,4.248-0.41,10.575,0,15.343c0.118,1.374,0.858,2.96,0.731,4.385
		c-0.402,4.518-5.63,10.435-6.576,15.709c-0.71,3.958-0.685,10.406,0,14.613c0.518,3.179,3.088,5.974,4.019,9.133
		c0.912,3.096,1.767,6.88,2.192,10.229c0.561,4.425,0.174,9.256,1.096,13.517c0.926,4.281,4.653,7.435,5.479,12.055
		c0.229,1.275-0.283,2.725,0,4.02c0.374,1.708,1.453,3.344,2.192,5.115c0.746,1.783,0.833,3.622,1.462,5.479
		c1.143,3.378,3.362,6.848,4.749,10.229c2.468,6.02,5.131,11.019,3.653,18.632c-2.957,1.342-3.476,4.203-5.48,6.94
		c-0.755,1.032-2.323,1.604-2.922,2.558c-0.876,1.395-0.907,3.322-1.827,4.75c-5.656,8.783-13.905,15.564-20.093,23.746
		c-6.029,1.658-9.494,7.211-14.247,10.229c-4.092,2.599-7.195,4.062-10.23,6.941c-3.965,3.764-8.75,8.906-12.055,13.883
		c-2.322,3.495-4.186,6.503-6.941,9.863c-2.516,3.067-5.548,4.967-7.307,9.133c-7.812,2.238-11.958,11.755-18.631,16.806
		c-0.894,0.675-2.509,1.226-3.654,2.191c-1.551,1.311-1.449,2.625-2.922,2.923c-6.329,1.28-8.758-6.591-15.344-6.576
		c-5.328-4.658-12.476-7.495-17.536-12.421c-5.324-0.893-11.68-2.356-16.439-2.923c-5.979-0.711-13.883-1.029-18.266,0.365
		c-2.744,0.873-4.339,3.488-6.576,4.75c-3.879,2.184-8.178,3.474-11.325,6.576c-3.175,3.128-5.444,6.291-8.768,8.768
		c-1.068,1.769-1.674,4.104-2.923,5.845c-3.502,4.881-8.186,9.296-11.69,14.247c-1.688,2.385-2.412,5.525-4.384,7.672
		c-1.224,1.334-3.529,2.135-5.48,3.653c-4.387,3.417-10.683,7.853-16.805,9.499c-3.1,0.833-5.413,0.444-8.402,1.461
		c-5.938,2.021-12.664,4.87-18.632,7.672c-11.026,5.178-20.453,15.285-34.706,17.536c-7.433,1.173-16.675-1.063-26.668,0.365
		c-7.82,1.117-13.677,5.551-21.555,7.672c-2.828,0.762-5.909,4.123-9.133,5.114c-8.862,2.727-18.586,3.558-27.764,5.479
		c-1.998,0.418-3.886,1.502-5.846,1.827c-2.376,0.394-4.33,0.172-6.575,0.73c-5.021,1.248-10.889,3.604-16.44,5.114
		c-0.521,0.143-1.28,0.301-1.827,0.365c-11.777,1.386-23.743-0.783-33.244,5.846c-2.643-0.733-4.305-0.784-5.845-0.366
		c-4.311,1.173-3.79,4.803-5.846,9.134c-1.982,4.177-9.254,8.491-14.978,10.594c-5.164,1.899-9.672,2.72-14.248,5.115
		c-10.419,5.454-20.254,11.579-26.668,21.554c-1.853,2.882-3.088,6.724-5.48,8.403c-1.866,1.309-5.228,2.297-7.307,3.652
		c-6.548,4.271-13.843,7.751-19.727,13.152c-1.811,1.662-3.64,3.62-5.48,5.479c-7.395,7.476-12.844,17.125-17.901,28.131
		c-1.889,4.109-3.977,7.733-5.48,12.055c-1.476,4.246-2.825,8.693-4.384,13.152c-0.572,1.636-1.836,3.268-2.192,4.749
		c-1.268,5.284,0.063,12.097-0.73,17.9c-0.261,1.909-1.403,3.513-0.366,5.48c1.217,2.137,1.301-1.732,3.654-0.73
		c1.646,3.76,2.051,8.876,0.73,13.882c0.521,1.428,2.182,1.716,1.827,4.02c9.004,6.582,12.815,18.358,26.669,20.092
		c0.763,5.691,4.632,8.276,7.671,11.691c1.206,7.317,4.108,12.94,8.403,17.17c-0.424,3.759,3.297,7.738,3.653,10.594
		c-0.007-0.059-0.173,1.775-0.426,1.855c0.369,0.713,0.952,1.574,1.157,2.163c2.739,7.871,7.035,15.087,10.96,23.017
		c-0.263,6.486,2.704,11.813,2.557,18.266c-0.051,2.213-1.687,4.247-1.827,6.576c-0.184,3.067,1.468,7.331,1.462,11.325
		c-0.009,5.655-1.717,9.256,2.191,12.786c1.481,4.487-2.01,8.357-2.557,12.421c-0.205,1.523,0.734,3.05,0.731,4.749
		c-0.01,4.628-2.348,9.691-2.557,14.248c-0.213,4.601,2.259,9.773,1.095,15.709c-0.448,2.286-2.021,4.106-2.191,6.21
		c-0.165,2.03,0.74,3.981,1.461,5.845c-1.255,2.316,0.348,5.462-0.365,9.134c-0.445,2.285-1.912,3.967-2.923,5.479
		c1.235,3.732,1.598,7.604,1.096,11.69c-0.204,1.661-1.151,3.069-1.096,4.749c0.141,4.35,3.671,9.715,4.384,14.979
		c0.238,1.76-0.253,3.529,0,5.115c0.74,4.636,3.764,9.063,4.384,13.517c0.477,3.435-1.223,6.385,1.461,8.768
		c1.553,1.529,1.483-1.666,3.288-1.096c0.129,1.819,1.005,2.892,0.731,5.115h28.86c-3.02-12.525-9.525-24.015-12.056-37.629
		c-1.481-7.97-1.523-16.19-2.557-25.208c-0.412-3.597-1.818-7.494-2.557-11.325c-0.801-4.149-0.732-8.557-1.461-12.421
		c-0.462-2.444-2.214-4.357-2.558-6.575c-0.349-2.261,0.01-5.455,0-8.038c-0.01-2.61-0.344-5.62,0-7.672
		c0.99-5.891,4.018-10.154,3.288-16.439c-0.326-2.812-1.583-5.08-2.557-7.672c1.471-20.916-1.415-38.634-2.922-59.913
		c-0.902-2.783-3.302-5.43-4.384-8.768c-2.319-7.146-2.121-16.378-2.923-23.746c-0.486-4.469-7.16-4.592-8.403-8.768
		c-0.245-3.047,0.071-5.532,1.097-7.307c-3.131-8.179-5.014-14.428-10.96-19.361c-3.814-3.165-9.111-4.44-12.787-7.673
		c-2.879-2.531-4.748-6.769-7.672-10.229c-1.651-1.956-8.397-7.305-8.767-9.864c-0.723-4.989-0.279-10.229,1.096-13.883
		c0.901-2.395,2.926-3.986,3.653-6.21c0.494-1.51,0.262-3.148,0.731-4.75c0.776-2.648,2.833-6.338,4.384-9.498
		c1.623-3.308,2.76-6.915,4.018-9.498c2.516-5.165,8.319-5.365,12.786-9.134c1.296-1.092,1.469-3.186,2.923-4.749
		c1.392-1.496,4.705-2.859,6.21-4.749c2.012-2.523,3.254-5.771,4.75-8.402c14.454-8.439,25.461-20.325,37.628-31.053
		c2.138-4.118,5.625-7.974,9.133-11.69c3.182-3.37,7.374-8.768,10.96-10.96c2.237-1.366,5.236-1.678,8.037-2.922
		c4.702-2.089,9.087-5.083,14.613-6.941c7.377-2.481,16.383-2.768,25.573-4.019c1.746-0.237,3.317-1.194,5.115-1.462
		c3.321-0.493,6.309-0.216,9.498-1.095c2.373-0.655,4.691-2.042,7.306-2.923c5.73-1.932,11.732-2.028,16.805-3.653
		c3.522-1.129,6.545-4.458,10.229-5.115c13.167,0.396,16.567-5.183,27.4-6.94c1.989-1.907,5.5-2.293,7.306-4.384
		c17.518-4.267,36.985-10.291,53.703-16.806c10.176-1.104,18.251-4.727,27.399-5.845c1.775,0.191,1.613-1.554,3.288-1.461
		c4.154,0.577,5.982-1.5,10.229-2.192c4.36-3.007,8.31-7.68,12.422-11.325c3.221-2.856,6.935-4.691,10.594-7.307
		c2.274-1.625,4.329-3.96,6.576-5.845c2.212-1.856,4.603-3.366,6.941-5.114c13.74-10.273,23.407-24.997,38.359-34.341
		c8.654-0.879,11.221,1.315,18.266,2.557c3.082,2.319,6.266,3.487,9.499,5.846c2.773,2.022,5.076,5.056,8.037,6.94
		c6.097,3.882,14.431,5.355,21.189,8.038c7.778-1.9,14.784-1.481,21.554-5.481c1.005-0.593,1.643-1.961,2.557-2.557
		c1.181-0.77,2.679-0.83,3.653-1.461c7.844-5.079,11.864-14.969,17.536-22.65c4.634-6.274,11.705-12.161,17.536-17.534
		c6.452-5.947,12.72-11.266,18.266-16.44c1.499,0.571,2.643,0.741,3.713,0.647c0.603-1.021,1.25-2.008,1.942-2.96
		c-0.756,0.157-1.523,0.158-2.367-0.245c1.265-3.972,3.953-6.52,6.941-8.768c-0.617-3.883,2.964-5.42,4.384-7.672
		c2.979-4.725,3.575-10.885,8.402-13.882c-0.299-2.212,0.528-4.116,0-5.48c4.211-3.947,9.055-7.263,12.421-12.056
		c0.255-10.827,8.141-14.021,10.96-22.285c10.057-3.492,7.173-19.729,4.384-27.398c-1.017-2.797-1.579-5.87-2.557-8.403
		c-4.222-10.924-11.834-19.053-16.805-29.591c-2.261-4.793-5-10.512-6.211-17.536c-2.956-17.148-0.526-34.42,4.019-50.049
		c1.54-5.296,1.363-11.185,3.653-16.44c0.784-1.799,3.031-3.574,4.018-5.845c0.935-2.147,0.861-4.392,1.827-6.21
		c3.228-6.077,8.726-9.218,13.152-14.979c4.479-5.83,6.737-11.583,12.786-15.343c3.381-2.102,10.592-2.998,17.536-2.191
		c4.716,0.547,9.63,3.564,14.978,4.018c2.017,0.171,3.984-0.246,5.845,0c7.802,1.034,13.51,4.913,21.188,5.479
		c1.764,1.467,3.029,3.977,5.845,4.385c3.737,0.541,8.166-1.196,13.152-1.827c2.959-0.374,6.015,0.257,7.672,0
		c2.334-0.361,5.919-1.929,8.768-3.288c8.149-3.885,15.134-12.774,21.188-21.188c6.502-9.036,11.273-18.764,14.247-28.13
		c1.449-4.563,2.642-9.586,4.384-14.248c1.595-4.267,5.541-8.687,6.211-12.056C895.627,510.012,893.448,500.414,892.957,495.271
		 M716.504,280.094c-2.25-0.332-2.827-3.801-1.096-5.114C716.444,276.015,716.552,277.977,716.504,280.094 M717.235,282.652
		c1.546,0.524,1.494,2.646,2.192,4.018C718.05,285.978,717.333,284.623,717.235,282.652 M720.523,291.054
		c-0.824-0.271-0.143-2.049-0.365-2.922C720.771,288.66,721.229,290.306,720.523,291.054 M196.282,1423.561
		c1.638,0.412,2.387,3.319,2.192,4.384c-0.88,0.149-0.794-0.667-1.827-0.365C196.21,1426.555,196.247,1425.059,196.282,1423.561
		 M624.809,893.84c1.172-1.021,2.401-1.983,3.288-3.288C628.467,891.666,626.529,893.604,624.809,893.84"/>
	<path clip-path="url(#SVGID_6_)" fill="none" stroke="#231F20" stroke-width="3" stroke-miterlimit="10" d="M1286.267,771.456
		c0,0-7.982-5.911,18.246-63.835c26.23-57.924,33.072-46.104,74.127-68.563c41.056-22.461,79.829-61.471,79.829-61.471"/>
	<path clip-path="url(#SVGID_6_)" fill="none" stroke="#231F20" stroke-width="5" stroke-miterlimit="10" d="M504.22,1019.571
		c0.013,24.196-17.893,38.125-19.833,61.657c-2.73,33.125,24.121,46.268,53.945,37.133c30.237-9.26,50.721,1.384,75.952,17.908
		c15.823,10.363,34.757,11.859,50.568,20.77c5.778,3.256,10.588,8.721,16.272,12.129c10.381,6.224,22.737,10.892,34.188,15.411
		c17.873,7.054,45.296,16.724,65.085,15.482c9.243-0.581,16.561-4.904,25.024-7.782c10.469-3.558,21.155-3.218,32.217-3.247"/>
</g>
<g>
	<defs>
		<rect id="SVGID_7_" y="-967.273" width="1727.338" height="2500.481"/>
	</defs>
	<clipPath id="SVGID_8_">
		<use xlink:href="#SVGID_7_"  overflow="visible"/>
	</clipPath>
	<path clip-path="url(#SVGID_8_)" d="M1091.021,302.499c4.699-2.902,9.063-6.293,13.572-9.548c4.539-3.238,9.19-6.243,13.509-9.638
		c4.313-3.386,8.29-7.172,11.13-11.774c2.864-4.59,5.104-9.684,7.661-14.627c2.488-4.929,4.859-9.894,6.539-15.059l0.322-0.995
		c0.111-0.332,0.21-0.65,0.345-1.004c0.253-0.703,0.516-1.358,0.796-2.018c0.558-1.313,1.164-2.596,1.811-3.853
		c1.29-2.517,2.713-4.953,4.252-7.318c3.102-4.706,6.565-9.225,10.946-13.029c2.2-1.872,4.685-3.594,7.741-4.475l0.576-0.153
		c0.056-0.011-0.023,0,0.143-0.031l0.064-0.011l0.129-0.021l0.256-0.044l0.512-0.088l0.632-0.057
		c0.436-0.046,0.848-0.048,1.248-0.03c0.406-0.005,0.812,0.057,1.216,0.106c1.623,0.221,3.15,0.862,4.472,1.672
		c2.656,1.645,4.603,3.829,6.487,5.869c1.875,2.056,3.677,4.074,5.7,5.663c1.009,0.792,2.068,1.469,3.184,1.969
		c1.139,0.545,2.153,0.686,3.811,1.196c0.763,0.238,1.781,0.755,2.462,1.548c0.672,0.772,1.018,1.516,1.34,2.197l1.686,3.841
		c2.217,5.099,4.363,10.067,7.31,14.673l8.748,14.15c2.912,4.767,5.476,9.667,8.724,13.893c3.201,4.28,7.365,7.534,12.168,9.914
		c4.794,2.394,10.04,4.015,15.32,5.755c1.321,0.435,2.648,0.883,3.974,1.347c1.325,0.472,2.787,1.021,4.15,1.947
		c1.382,0.925,2.461,2.196,3.3,3.43c0.516,0.749,0.819,1.515,1.084,2.037c0.27,0.545,0.496,0.854,0.769,1.066l3.847,3.002
		l-4.867,0.007l-44.2,0.058l-44.201-0.119l-22.101-0.059l-22.101-0.121l-22.101-0.145l-23.838-0.212L1091.021,302.499z
		 M1093.047,302.398l20.33-0.318l22.1-0.294l22.099-0.27l22.101-0.208l44.199-0.418l44.199-0.241l-1.021,3.008
		c-0.836-0.634-1.385-1.521-1.725-2.215c-0.354-0.716-0.576-1.244-0.856-1.637c-0.724-1.047-1.489-1.914-2.424-2.534
		c-0.938-0.634-2.092-1.09-3.374-1.537c-1.293-0.447-2.596-0.881-3.909-1.307c-5.246-1.71-10.655-3.34-15.812-5.884
		c-1.282-0.65-2.552-1.336-3.779-2.105c-0.61-0.398-1.224-0.76-1.829-1.215c-0.61-0.436-1.227-0.874-1.739-1.309
		c-2.291-1.802-4.312-3.963-6.076-6.231c-3.548-4.565-6.122-9.557-8.961-14.258l-8.683-14.188
		c-3.019-4.765-5.272-10.033-7.446-15.103l-1.639-3.782c-0.259-0.574-0.537-1.089-0.783-1.362c-0.235-0.261-0.485-0.418-1.034-0.609
		c-0.537-0.191-1.133-0.304-1.904-0.529c-0.378-0.102-0.753-0.214-1.114-0.359c-0.37-0.129-0.731-0.273-1.079-0.442
		c-1.413-0.642-2.699-1.481-3.865-2.405c-2.334-1.857-4.221-4.021-6.072-6.061c-1.844-2.034-3.671-4.024-5.752-5.309
		c-1.036-0.639-2.121-1.092-3.252-1.248c-0.283-0.033-0.564-0.085-0.853-0.078c-0.293-0.015-0.573-0.015-0.829,0.013l-0.404,0.025
		l-0.513,0.085l-0.256,0.043l-0.128,0.021l-0.064,0.011c0.123-0.025,0.003,0.001,0.017,0l-0.429,0.114
		c-2.301,0.633-4.525,2.106-6.548,3.784c-4.058,3.419-7.492,7.734-10.537,12.232c-1.516,2.263-2.926,4.602-4.198,7.003
		c-0.638,1.199-1.232,2.417-1.775,3.648c-0.271,0.613-0.531,1.242-0.756,1.84c-0.118,0.291-0.23,0.634-0.345,0.958l-0.332,0.979
		c-1.828,5.367-4.329,10.408-6.9,15.337c-2.618,4.859-4.876,9.946-8.004,14.707c-3.115,4.8-7.4,8.685-11.864,12.026
		c-4.48,3.363-9.226,6.278-13.782,9.38C1101.379,296.96,1097.304,299.817,1093.047,302.398"/>
	
		<line clip-path="url(#SVGID_8_)" fill="none" stroke="#000000" stroke-miterlimit="10" x1="632.787" y1="232.943" x2="737.884" y2="194.112"/>
	<g clip-path="url(#SVGID_8_)">
		<defs>
			
				<rect id="SVGID_9_" x="720.258" y="172.973" transform="matrix(-0.9698 0.244 -0.244 -0.9698 1509.0529 199.6772)" width="43.801" height="40.672"/>
		</defs>
		<clipPath id="SVGID_10_">
			<use xlink:href="#SVGID_9_"  overflow="visible"/>
		</clipPath>
		<polygon clip-path="url(#SVGID_10_)" fill="#EB2D34" points="725.882,218.374 737.265,194.541 715.958,178.932 763.396,187.966 		
			"/>
		<polygon clip-path="url(#SVGID_10_)" points="725.882,218.374 737.265,194.541 715.958,178.932 763.396,187.966 		"/>
	</g>
	
		<line clip-path="url(#SVGID_8_)" fill="none" stroke="#000000" stroke-miterlimit="10" x1="618.183" y1="605.883" x2="736.164" y2="636.517"/>
	<g clip-path="url(#SVGID_8_)">
		<defs>
			
				<rect id="SVGID_11_" x="720.001" y="616.18" transform="matrix(-0.8374 -0.5466 0.5466 -0.8374 1004.7256 1571.9126)" width="32.326" height="40.672"/>
		</defs>
		<clipPath id="SVGID_12_">
			<use xlink:href="#SVGID_11_"  overflow="visible"/>
		</clipPath>
		<polygon clip-path="url(#SVGID_12_)" fill="#EB2D34" points="711.514,644.712 733.045,634.481 733.744,610.653 749.699,645.351 		
			"/>
		<polygon clip-path="url(#SVGID_12_)" points="711.514,644.712 733.045,634.481 733.744,610.653 749.699,645.351 		"/>
	</g>
	
		<line clip-path="url(#SVGID_8_)" fill="none" stroke="#000000" stroke-miterlimit="10" x1="429.919" y1="849.484" x2="527.104" y2="923.059"/>
	<g clip-path="url(#SVGID_8_)">
		<defs>
			
				<rect id="SVGID_13_" x="509.246" y="902.171" transform="matrix(-0.7885 -0.6151 0.6151 -0.7885 372.2644 1973.04)" width="32.326" height="40.672"/>
		</defs>
		<clipPath id="SVGID_14_">
			<use xlink:href="#SVGID_13_"  overflow="visible"/>
		</clipPath>
		<polygon clip-path="url(#SVGID_14_)" fill="#EB2D34" points="500.157,928.6 522.472,920.216 525.173,896.531 538.152,932.448 		
			"/>
		<polygon clip-path="url(#SVGID_14_)" points="500.157,928.6 522.472,920.216 525.173,896.531 538.152,932.448 		"/>
	</g>
	
		<line clip-path="url(#SVGID_8_)" fill="none" stroke="#000000" stroke-miterlimit="10" x1="235.295" y1="944.943" x2="289.572" y2="1013.477"/>
	<g clip-path="url(#SVGID_8_)">
		<defs>
			
				<rect id="SVGID_15_" x="277.341" y="992.31" transform="matrix(-0.5108 -0.8597 0.8597 -0.5108 -434.9955 1777.7709)" width="21.914" height="40.672"/>
		</defs>
		<clipPath id="SVGID_16_">
			<use xlink:href="#SVGID_15_"  overflow="visible"/>
		</clipPath>
		<polygon clip-path="url(#SVGID_16_)" fill="#EB2D34" points="265.218,1013.615 287.008,1010.477 300.183,992.84 293.895,1022.066 
					"/>
		<polygon clip-path="url(#SVGID_16_)" points="265.218,1013.615 287.008,1010.477 300.183,992.84 293.895,1022.066 		"/>
	</g>
	<path clip-path="url(#SVGID_8_)" fill="#010101" d="M813.532,244.784c0,6.539-5.301,11.841-11.84,11.841
		c-6.54,0-11.841-5.302-11.841-11.841s5.301-11.84,11.841-11.84C808.23,232.943,813.532,238.245,813.532,244.784"/>
	<path clip-path="url(#SVGID_8_)" fill="#010101" d="M803.001,181.938c0,6.539-5.301,11.84-11.84,11.84
		c-6.54,0-11.841-5.301-11.841-11.84s5.301-11.841,11.841-11.841C797.7,170.097,803.001,175.399,803.001,181.938"/>
	<path clip-path="url(#SVGID_8_)" fill="#010101" d="M789.899,645.376c0,6.539-5.301,11.84-11.84,11.84
		c-6.54,0-11.841-5.301-11.841-11.84s5.301-11.842,11.841-11.842C784.598,633.534,789.899,638.837,789.899,645.376"/>
	<path clip-path="url(#SVGID_8_)" fill="#010101" d="M350.721,1109.871c0,6.539-5.301,11.84-11.84,11.84
		c-6.54,0-11.841-5.301-11.841-11.84s5.301-11.841,11.841-11.841C345.42,1098.03,350.721,1103.332,350.721,1109.871"/>
	<path clip-path="url(#SVGID_8_)" fill="#010101" d="M1011.279,1399.257c0,6.539-5.301,11.841-11.84,11.841
		c-6.54,0-11.841-5.302-11.841-11.841c0-6.538,5.301-11.84,11.841-11.84C1005.979,1387.417,1011.279,1392.719,1011.279,1399.257"/>
	<polygon clip-path="url(#SVGID_8_)" fill="#010101" points="905.059,735.251 867.62,735.251 867.62,717.998 885.887,700.744 
		905.059,717.998 	"/>
	<polygon clip-path="url(#SVGID_8_)" fill="#010101" points="927.941,691.775 890.503,691.775 890.503,674.522 908.77,657.269 
		927.941,674.522 	"/>
	<polygon clip-path="url(#SVGID_8_)" fill="#010101" points="1090.355,906.66 1052.916,906.66 1052.916,889.407 1071.183,872.153 
		1090.355,889.407 	"/>
	<polygon clip-path="url(#SVGID_8_)" fill="#010101" points="545.823,1174.146 508.384,1174.146 508.384,1156.893 526.651,1139.639 
		545.823,1156.893 	"/>
	<polygon clip-path="url(#SVGID_8_)" fill="#010101" points="310.436,1061.084 272.997,1061.084 272.997,1043.831 291.264,1026.577 
		310.436,1043.831 	"/>
	<polygon clip-path="url(#SVGID_8_)" fill="#010101" points="567.681,969.792 530.242,969.792 530.242,952.539 548.509,935.285 
		567.681,952.539 	"/>
	<polygon clip-path="url(#SVGID_8_)" fill="#010101" points="1198.399,658.064 1160.96,658.064 1160.96,640.812 1179.228,623.558 
		1198.399,640.812 	"/>
	<polygon clip-path="url(#SVGID_8_)" fill="#010101" points="1351.374,1334.443 1313.937,1334.696 1313.819,1317.443 
		1331.97,1300.066 1351.258,1317.19 	"/>
	<polygon clip-path="url(#SVGID_8_)" fill="#010101" points="1381.367,1334.453 1361.451,1334.453 1361.451,1325.275 
		1371.168,1316.097 1381.367,1325.275 	"/>
	<polygon clip-path="url(#SVGID_8_)" fill="#010101" points="1021.237,112.82 1001.321,112.82 1001.321,103.643 1011.038,94.465 
		1021.237,103.643 	"/>
	<polygon clip-path="url(#SVGID_8_)" fill="#010101" points="953.584,1253.823 933.668,1253.823 933.668,1244.646 943.385,1235.467 
		953.584,1244.646 	"/>
	<polygon clip-path="url(#SVGID_8_)" fill="#010101" points="1460.079,1216.403 1422.664,1217.737 1422.049,1200.495 
		1439.688,1182.602 1459.464,1199.161 	"/>
	<polygon clip-path="url(#SVGID_8_)" fill="#010101" points="821.113,1009.089 819.871,1009.089 819.871,989.866 822.029,989.866 
		812.118,978.389 802.236,989.866 804.395,989.866 804.395,1009.089 802.959,1009.089 788.611,1024.019 788.303,1048.614 
		835.655,1049.09 835.962,1024.496 	"/>
	<path clip-path="url(#SVGID_8_)" fill="#010101" d="M1471.919,1037.957c0,6.539-5.301,11.84-11.84,11.84
		c-6.54,0-11.841-5.301-11.841-11.84s5.301-11.84,11.841-11.84C1466.618,1026.117,1471.919,1031.418,1471.919,1037.957"/>
</g>
</svg>
